<svg width="1080" height="1080" viewBox="0 0 1080 1080" fill="none" xmlns="http://www.w3.org/2000/svg">
<g clip-path="url(#clip0_1_110)">
<rect width="1080" height="1080" fill="white"/>
<g filter="url(#filter0_f_1_110)">
<path fill-rule="evenodd" clip-rule="evenodd" d="M1418.29 756.2C1393.31 808.879 1336.83 836.52 1294.03 876.084C1255.83 911.392 1226.39 957.906 1178.41 977.943C1130.74 997.853 1077.14 983.054 1025.74 988.125C967.181 993.902 907.44 1031.91 852.812 1010.06C798.803 988.468 774.439 925.823 744.747 875.772C717.093 829.157 694.596 780.124 684.77 726.803C675.012 673.851 670.611 618.309 687.905 567.309C704.832 517.394 745.115 480.52 781.282 442.197C816.048 405.358 851.2 368.645 896.585 346.192C942.792 323.331 994.208 318.367 1045.3 311.58C1103.22 303.884 1168.35 272.98 1218.2 303.464C1268.97 334.513 1256.16 416.501 1293.15 463.15C1331.47 511.492 1411.33 520.872 1435.56 577.624C1459.34 633.3 1444.24 701.48 1418.29 756.2Z" fill="url(#paint0_linear_1_110)"/>
</g>
<g filter="url(#filter1_f_1_110)">
<path fill-rule="evenodd" clip-rule="evenodd" d="M1.68506 -127.918C52.2861 -118.649 88.436 -78.3843 131.759 -51.8042C170.422 -28.0837 216.735 -13.8748 244.496 21.0541C272.082 55.7615 271.279 102.625 286.993 143.506C304.893 190.076 350.63 230.81 344.028 280.004C337.502 328.64 289.292 361.746 253.037 396.542C219.271 428.95 182.296 457.66 138.846 476.933C95.6989 496.073 49.1492 511.388 1.68506 508.038C-44.7693 504.759 -85.2339 479.666 -126.027 458.238C-165.241 437.639 -204.432 416.7 -233.686 384.4C-263.471 351.513 -279.096 310.6 -296.209 270.338C-315.611 224.688 -356.466 178.055 -341.414 130.938C-326.082 82.9482 -253.096 76.0994 -221.365 36.0694C-188.483 -5.4137 -198.127 -72.5634 -154.932 -104.321C-112.555 -135.476 -50.8778 -137.547 1.68506 -127.918Z" fill="url(#paint1_linear_1_110)"/>
</g>
<rect width="1080" height="1080" fill="white" fill-opacity="0.7"/>
</g>
<defs>
<filter id="filter0_f_1_110" x="376.188" y="-9.7149" width="1371.26" height="1326.49" filterUnits="userSpaceOnUse" color-interpolation-filters="sRGB">
<feFlood flood-opacity="0" result="BackgroundImageFix"/>
<feBlend mode="normal" in="SourceGraphic" in2="BackgroundImageFix" result="shape"/>
<feGaussianBlur stdDeviation="150" result="effect1_foregroundBlur_1_110"/>
</filter>
<filter id="filter1_f_1_110" x="-644.675" y="-433.003" width="1289.35" height="1241.5" filterUnits="userSpaceOnUse" color-interpolation-filters="sRGB">
<feFlood flood-opacity="0" result="BackgroundImageFix"/>
<feBlend mode="normal" in="SourceGraphic" in2="BackgroundImageFix" result="shape"/>
<feGaussianBlur stdDeviation="150" result="effect1_foregroundBlur_1_110"/>
</filter>
<linearGradient id="paint0_linear_1_110" x1="1424.61" y1="755.865" x2="687.852" y2="565.326" gradientUnits="userSpaceOnUse">
<stop stop-color="#FF613F"/>
<stop offset="1" stop-color="#EB00FF"/>
</linearGradient>
<linearGradient id="paint1_linear_1_110" x1="0" y1="-133.003" x2="0" y2="508.5" gradientUnits="userSpaceOnUse">
<stop stop-color="#00E0FF"/>
<stop offset="1" stop-color="#8400FF"/>
</linearGradient>
<clipPath id="clip0_1_110">
<rect width="1080" height="1080" fill="white"/>
</clipPath>
</defs>
</svg>
